<svg id="mpbw" xmlns="http://www.w3.org/2000/svg" width="182.281" height="40.198" viewBox="0 0 182.281 40.198">
<path
     fill="#d51b1b"
     transform="translate(-16.06 -13.018)"
     d="M49,14.52V40.558H40.813V22.336q-2.194,7-6.522,18.222H29.133q-4.4-11.235-6.63-18.222V40.558H16.06V14.52H27.1q1.838,4.812,2.816,7.609,1.611,4.565,2.806,8.429H32.8q1.581-5.4,5.445-16.038Z"
     data-name="Path 13"
     id="Path_13" />
  <path
     fill="#d51b1b"
     transform="translate(-16.489 -13.102)"
     d="M63.446,41.086a11.64,11.64,0,0,1-7.905-2.678,9.071,9.071,0,0,1-3.261-7.293,8.577,8.577,0,0,1,3.34-7.026,12.154,12.154,0,0,1,7.8-2.49,12.1,12.1,0,0,1,7.757,2.53,8.468,8.468,0,0,1,3.419,7,9.111,9.111,0,0,1-3.261,7.332A11.7,11.7,0,0,1,63.426,41.1m0-16.176q-1.828,0-2.678,2.381a11.453,11.453,0,0,0-.583,3.834q0,6.66,3.261,6.66t3.3-6.66a11.522,11.522,0,0,0-.583-3.864q-.85-2.342-2.717-2.342"
     data-name="Path 14"
     id="Path_14" />
  <path
     fill="#d51b1b"
     transform="translate(-16.76 -13)"
     d="M75.17,49.838V47.724a2.964,2.964,0,0,0,2.293-1.561,17.283,17.283,0,0,0,.346-4.13V21.893h7.757v19.99q0,4.8-2.836,6.551-2.293,1.413-7.569,1.413m6.463-29.091A3.953,3.953,0,0,1,78.8,19.591a3.715,3.715,0,0,1-1.2-2.737A3.557,3.557,0,0,1,78.856,14.2,4,4,0,0,1,81.662,13a4.17,4.17,0,0,1,2.876,1.136,3.518,3.518,0,0,1,1.255,2.7,3.607,3.607,0,0,1-1.255,2.747,4.18,4.18,0,0,1-2.964,1.156"
     data-name="Path 15"
     id="Path_15" />
  <path
     fill="#d51b1b"
     transform="translate(-16.933 -13.018)"
     d="M99.206,26.644l1.127-.109a4.163,4.163,0,0,0,3.725-4.051q0-3.093-3.953-3.083H97.9V40.558H89.74V14.52H101a15.237,15.237,0,0,1,7.372,1.522,6.334,6.334,0,0,1,3.528,5.988,8.113,8.113,0,0,1-3.528,6.8,12.54,12.54,0,0,1-7.688,2.421H99.206Z"
     data-name="Path 16"
     id="Path_16" />
  <path
     fill="#d51b1b"
     transform="translate(-17.214 -13.102)"
     d="M124.576,41.086a11.641,11.641,0,0,1-7.905-2.678,9.061,9.061,0,0,1-3.261-7.293,8.567,8.567,0,0,1,3.34-7.026,13.31,13.31,0,0,1,15.563,0,8.468,8.468,0,0,1,3.419,7.026,9.111,9.111,0,0,1-3.261,7.332,11.69,11.69,0,0,1-7.905,2.638m0-16.176q-1.828,0-2.678,2.381a11.453,11.453,0,0,0-.583,3.834q0,6.66,3.261,6.66t3.261-6.67a11.523,11.523,0,0,0-.583-3.864q-.85-2.342-2.717-2.342"
     data-name="Path 17"
     id="Path_17" />
  <path
     fill="#d51b1b"
     transform="translate(-17.504 -13.103)"
     d="M152.534,22.9l-1.621,3.35a6.472,6.472,0,0,0-2.856-.86q-1.581,0-1.581,1.344a2.421,2.421,0,0,0,1.235,1.858l2.836,1.976a5.682,5.682,0,0,1,2.49,3.162,7.66,7.66,0,0,1,.148,1.828,4.842,4.842,0,0,1-1.976,3.5,8.765,8.765,0,0,1-6.018,2.085,12.994,12.994,0,0,1-7.3-1.749l1.63-3.795a10.029,10.029,0,0,0,4.19,1.6q1.818,0,1.818-1.591,0-.7-1.166-1.63a27,27,0,0,0-2.6-1.739,5.7,5.7,0,0,1-3.063-4.941,4.872,4.872,0,0,1,2.332-4.19,8.459,8.459,0,0,1,4.941-1.443,16.413,16.413,0,0,1,6.561,1.3"
     data-name="Path 18"
     id="Path_18" />
  <path
     fill="#d51b1b"
     transform="translate(-17.978 -13.102)"
     d="M189.1,41.086a11.64,11.64,0,0,1-7.905-2.678,9.071,9.071,0,0,1-3.261-7.293,8.567,8.567,0,0,1,3.34-7.026,13.31,13.31,0,0,1,15.563,0,8.468,8.468,0,0,1,3.419,7,9.111,9.111,0,0,1-3.261,7.332,11.69,11.69,0,0,1-7.905,2.638m0-16.176q-1.828,0-2.678,2.381a11.453,11.453,0,0,0-.583,3.834q0,6.66,3.261,6.66t3.3-6.66a11.571,11.571,0,0,0-.583-3.864q-.86-2.342-2.717-2.342"
     data-name="Path 19"
     id="Path_19" />
  <path
     fill="#d51b1b"
     transform="translate(-17.714 -13.101)"
     d="M167.458,38.635l-1.087.563q-3.686,1.9-5.158,1.9a5.415,5.415,0,0,1-3.953-1.66,5.336,5.336,0,0,1-1.65-3.883,5.929,5.929,0,0,1,2.332-4.941,13.953,13.953,0,0,1,5.356-2.233l4.466-1.038a3.2,3.2,0,0,0-1.324-1.324,3.686,3.686,0,0,0-1.868-.543,7.767,7.767,0,0,0-5.119,1.976l-2.134-3.35a15.5,15.5,0,0,1,8.656-2.53q9.279,0,9.279,7.777v6.729a12.846,12.846,0,0,0,.662,4.536h-8.063a4.812,4.812,0,0,1-.346-1.976m.237-8.627-2.213.82q-2.875,1.077-2.876,3.715a2.214,2.214,0,0,0,.583,1.492,1.828,1.828,0,0,0,1.433.672q1.868,0,2.638-2.678a12.065,12.065,0,0,0,.425-4.022"
     data-name="Path 21"
     id="Path_21" />
</svg>

