<svg id="mpbw" xmlns="http://www.w3.org/2000/svg" width="182.281" height="40.198" viewBox="0 0 182.281 40.198">
  <path id="Path_13" data-name="Path 13" d="M49,14.52V40.558H40.813V22.336q-2.194,7-6.522,18.222H29.133q-4.4-11.235-6.63-18.222V40.558H16.06V14.52H27.1q1.838,4.812,2.816,7.609,1.611,4.565,2.806,8.429H32.8q1.581-5.4,5.445-16.038Z" transform="translate(-16.06 -13.018)" fill="#d51b1b"/>
  <path id="Path_14" data-name="Path 14" d="M63.446,41.086a11.64,11.64,0,0,1-7.905-2.678,9.071,9.071,0,0,1-3.261-7.293,8.577,8.577,0,0,1,3.34-7.026,12.154,12.154,0,0,1,7.8-2.49,12.1,12.1,0,0,1,7.757,2.53,8.468,8.468,0,0,1,3.419,7,9.111,9.111,0,0,1-3.261,7.332A11.7,11.7,0,0,1,63.426,41.1m0-16.176q-1.828,0-2.678,2.381a11.453,11.453,0,0,0-.583,3.834q0,6.66,3.261,6.66t3.3-6.66a11.522,11.522,0,0,0-.583-3.864q-.85-2.342-2.717-2.342" transform="translate(-16.489 -13.102)" fill="#d51b1b"/>
  <path id="Path_15" data-name="Path 15" d="M75.17,49.838V47.724a2.964,2.964,0,0,0,2.293-1.561,17.283,17.283,0,0,0,.346-4.13V21.893h7.757v19.99q0,4.8-2.836,6.551-2.293,1.413-7.569,1.413m6.463-29.091A3.953,3.953,0,0,1,78.8,19.591a3.715,3.715,0,0,1-1.2-2.737A3.557,3.557,0,0,1,78.856,14.2,4,4,0,0,1,81.662,13a4.17,4.17,0,0,1,2.876,1.136,3.518,3.518,0,0,1,1.255,2.7,3.607,3.607,0,0,1-1.255,2.747,4.18,4.18,0,0,1-2.964,1.156" transform="translate(-16.76 -13)" fill="#d51b1b"/>
  <path id="Path_16" data-name="Path 16" d="M99.206,26.644l1.127-.109a4.163,4.163,0,0,0,3.725-4.051q0-3.093-3.953-3.083H97.9V40.558H89.74V14.52H101a15.237,15.237,0,0,1,7.372,1.522,6.334,6.334,0,0,1,3.528,5.988,8.113,8.113,0,0,1-3.528,6.8,12.54,12.54,0,0,1-7.688,2.421H99.206Z" transform="translate(-16.933 -13.018)" fill="#d51b1b"/>
  <path id="Path_17" data-name="Path 17" d="M124.576,41.086a11.641,11.641,0,0,1-7.905-2.678,9.061,9.061,0,0,1-3.261-7.293,8.567,8.567,0,0,1,3.34-7.026,13.31,13.31,0,0,1,15.563,0,8.468,8.468,0,0,1,3.419,7.026,9.111,9.111,0,0,1-3.261,7.332,11.69,11.69,0,0,1-7.905,2.638m0-16.176q-1.828,0-2.678,2.381a11.453,11.453,0,0,0-.583,3.834q0,6.66,3.261,6.66t3.261-6.67a11.523,11.523,0,0,0-.583-3.864q-.85-2.342-2.717-2.342" transform="translate(-17.214 -13.102)" fill="#d51b1b"/>
  <path id="Path_18" data-name="Path 18" d="M152.534,22.9l-1.621,3.35a6.472,6.472,0,0,0-2.856-.86q-1.581,0-1.581,1.344a2.421,2.421,0,0,0,1.235,1.858l2.836,1.976a5.682,5.682,0,0,1,2.49,3.162,7.66,7.66,0,0,1,.148,1.828,4.842,4.842,0,0,1-1.976,3.5,8.765,8.765,0,0,1-6.018,2.085,12.994,12.994,0,0,1-7.3-1.749l1.63-3.795a10.029,10.029,0,0,0,4.19,1.6q1.818,0,1.818-1.591,0-.7-1.166-1.63a27,27,0,0,0-2.6-1.739,5.7,5.7,0,0,1-3.063-4.941,4.872,4.872,0,0,1,2.332-4.19,8.459,8.459,0,0,1,4.941-1.443,16.413,16.413,0,0,1,6.561,1.3" transform="translate(-17.504 -13.103)" fill="#d51b1b"/>
  <path id="Path_19" data-name="Path 19" d="M189.1,41.086a11.64,11.64,0,0,1-7.905-2.678,9.071,9.071,0,0,1-3.261-7.293,8.567,8.567,0,0,1,3.34-7.026,13.31,13.31,0,0,1,15.563,0,8.468,8.468,0,0,1,3.419,7,9.111,9.111,0,0,1-3.261,7.332,11.69,11.69,0,0,1-7.905,2.638m0-16.176q-1.828,0-2.678,2.381a11.453,11.453,0,0,0-.583,3.834q0,6.66,3.261,6.66t3.3-6.66a11.571,11.571,0,0,0-.583-3.864q-.86-2.342-2.717-2.342" transform="translate(-17.978 -13.102)" fill="#d51b1b"/>
  <path id="Path_20" data-name="Path 20" d="M196.846,48.279a2.964,2.964,0,0,1-.316,1.354,1.186,1.186,0,0,1-1.067.751.642.642,0,0,1-.534-.267.988.988,0,0,1-.208-.6q0-.919,1.235-1.285l.889-.257v.306m.148,2.7h.988a2.965,2.965,0,0,1-.227-1.255V47.459q0-1.749-1.907-1.749a2.451,2.451,0,0,0-1.759.7l.356.464a2.1,2.1,0,0,1,1.354-.553.988.988,0,0,1,.711.3,1.136,1.136,0,0,1,.316.731l-1.245.4q-1.828.573-1.828,1.779a1.631,1.631,0,0,0,.375,1.117,1.354,1.354,0,0,0,1.077.464,1.976,1.976,0,0,0,1.285-.682l.326-.316a1.917,1.917,0,0,0,.148.87m-4.14-6.848a.494.494,0,0,0-.178-.4.632.632,0,0,0-.82,0,.494.494,0,0,0-.178.4q0,.623.583.632t.583-.632m-.119,7.214v-5.5h-.919V51.4a4.5,4.5,0,0,1-.079.988q-.158.613-.613.7v.455q1.63,0,1.63-2.2m-6.868-5.5v5.148h.988V47.894a1.532,1.532,0,0,1,.375-1.077,1.324,1.324,0,0,1,.988-.415q1.255,0,1.255,1.472v3.113h.929v-3.32q0-1.976-1.828-1.976a2.342,2.342,0,0,0-1.769.761v-.642Zm-2.342,2.451a2.964,2.964,0,0,1-.316,1.354,1.186,1.186,0,0,1-1.067.751.642.642,0,0,1-.534-.267.988.988,0,0,1-.208-.6q0-.919,1.235-1.285l.889-.257v.306m.148,2.7h.988a2.965,2.965,0,0,1-.227-1.255V47.459q0-1.749-1.907-1.749a2.451,2.451,0,0,0-1.759.7l.366.464a2.1,2.1,0,0,1,1.344-.553.988.988,0,0,1,.711.3,1.136,1.136,0,0,1,.316.731l-1.245.4q-1.828.573-1.828,1.779a1.63,1.63,0,0,0,.385,1.117,1.354,1.354,0,0,0,1.077.464,1.976,1.976,0,0,0,1.285-.682l.326-.316a1.917,1.917,0,0,0,.148.87m-3.567-5.01-.81-.188q-.988,2.431-1.611,4.18h0q-.534-1.611-1.561-4.18l-.929.247,2.134,5h.573Zm-6.492,2.362a2.964,2.964,0,0,1-.316,1.354,1.186,1.186,0,0,1-1.067.751.642.642,0,0,1-.534-.267.988.988,0,0,1-.208-.6q0-.919,1.235-1.285l.889-.257v.306m.148,2.7h.988a2.965,2.965,0,0,1-.227-1.255V47.459q0-1.749-1.907-1.749a2.451,2.451,0,0,0-1.759.7l.366.464a2.1,2.1,0,0,1,1.344-.553.988.988,0,0,1,.711.3,1.136,1.136,0,0,1,.316.731l-1.245.4q-1.828.573-1.828,1.779a1.631,1.631,0,0,0,.385,1.117,1.354,1.354,0,0,0,1.077.464,1.976,1.976,0,0,0,1.285-.682l.326-.316a1.907,1.907,0,0,0,.148.87m-4.15-6.848a.494.494,0,0,0-.178-.4.623.623,0,0,0-.82,0,.494.494,0,0,0-.178.4q0,.623.583.632t.583-.632m-.119,7.214v-5.5H168.5V51.4a4.564,4.564,0,0,1-.079.988q-.158.613-.613.7v.455q1.63,0,1.63-2.2m-2.391-7.905h-.929v7.569h.959Zm-4.7.109h-.6l1.285,1.561h.672l1.285-1.561h-.593l-.988.988Zm1.294,2.184a1.976,1.976,0,0,0-1.156.326,1.146,1.146,0,0,0-.553.988,1.265,1.265,0,0,0,.326.84,3.814,3.814,0,0,0,.711.583,8.418,8.418,0,0,1,.751.543.919.919,0,0,1,.326.7.632.632,0,0,1-.257.543.988.988,0,0,1-.613.188,1.65,1.65,0,0,1-1.038-.524l-.455.524a2.226,2.226,0,0,0,2.8.287,1.265,1.265,0,0,0,.583-1.077,1.482,1.482,0,0,0-.306-.919,3.578,3.578,0,0,0-.711-.682l-.83-.593a.741.741,0,0,1-.306-.543.5.5,0,0,1,.247-.445.9.9,0,0,1,.5-.148,1.729,1.729,0,0,1,.988.326l.366-.474a1.71,1.71,0,0,0-1.265-.474m-3.953,1.275a2.4,2.4,0,0,1,.346,1.364,2.747,2.747,0,0,1-.326,1.423,1.423,1.423,0,0,1-2.431,0,2.8,2.8,0,0,1-.316-1.423,2.411,2.411,0,0,1,.356-1.354,1.443,1.443,0,0,1,2.381,0m.682,3.31a2.856,2.856,0,0,0,.672-1.976,2.648,2.648,0,0,0-.7-1.887,2.609,2.609,0,0,0-3.666,0,2.648,2.648,0,0,0-.7,1.887,2.836,2.836,0,0,0,.672,1.976,2.332,2.332,0,0,0,1.858.81,2.362,2.362,0,0,0,1.878-.8M150.3,45.838v7.717h.929V50.3h0a1.917,1.917,0,0,0,1.581.8,2.174,2.174,0,0,0,1.818-.87,3.113,3.113,0,0,0,.623-1.976,2.964,2.964,0,0,0-.415-1.551,2.1,2.1,0,0,0-1.927-.988,1.976,1.976,0,0,0-.988.257,1.858,1.858,0,0,0-.721.672h0v-.8Zm1.3,4.022a2.213,2.213,0,0,1-.385-1.344,2.8,2.8,0,0,1,.336-1.472,1.393,1.393,0,0,1,1.275-.672,1.225,1.225,0,0,1,1.087.623,2.312,2.312,0,0,1,.336,1.265,3.172,3.172,0,0,1-.287,1.433,1.225,1.225,0,0,1-1.156.751,1.413,1.413,0,0,1-1.225-.583m-3.646-1.581a2.964,2.964,0,0,1-.316,1.354,1.186,1.186,0,0,1-1.067.751.642.642,0,0,1-.534-.267.988.988,0,0,1-.208-.6q0-.919,1.235-1.285l.889-.257v.306m.148,2.7h.988a2.965,2.965,0,0,1-.227-1.255V47.459q0-1.749-1.907-1.749a2.451,2.451,0,0,0-1.759.7l.356.464a2.1,2.1,0,0,1,1.344-.553.988.988,0,0,1,.711.3,1.137,1.137,0,0,1,.316.731l-1.245.4q-1.828.573-1.828,1.779a1.631,1.631,0,0,0,.376,1.117,1.354,1.354,0,0,0,1.077.464,1.976,1.976,0,0,0,1.285-.682l.326-.316a1.917,1.917,0,0,0,.148.87m-7.658-5.138v.593h2.6l-3.2,4.249v.3h4.328v-.6h-3.034l3.034-4.14v-.405ZM134.157,44.6v1.235h-.682v.534h.721v3.093q0,1.65,1.522,1.65a1.976,1.976,0,0,0,1.047-.326l-.227-.514a1.492,1.492,0,0,1-.712.178q-.711,0-.711-1.156V46.372h1.324v-.534H135.1V44.3ZM131.41,45.71a1.976,1.976,0,0,0-1.156.326,1.146,1.146,0,0,0-.553.988,1.265,1.265,0,0,0,.326.84,3.825,3.825,0,0,0,.711.583,8.349,8.349,0,0,1,.751.543.919.919,0,0,1,.326.7.632.632,0,0,1-.257.543.988.988,0,0,1-.613.188,1.65,1.65,0,0,1-1.107-.514l-.455.524a2.226,2.226,0,0,0,2.8.287,1.265,1.265,0,0,0,.583-1.077,1.482,1.482,0,0,0-.306-.919,3.637,3.637,0,0,0-.712-.682l-.83-.593a.741.741,0,0,1-.306-.543.5.5,0,0,1,.247-.445.889.889,0,0,1,.5-.148,1.729,1.729,0,0,1,.988.326l.366-.474a1.709,1.709,0,0,0-1.265-.474m-3.9,1.265a2.4,2.4,0,0,1,.346,1.364,2.747,2.747,0,0,1-.326,1.423,1.423,1.423,0,0,1-2.431,0,2.8,2.8,0,0,1-.316-1.423,2.411,2.411,0,0,1,.356-1.354,1.443,1.443,0,0,1,2.372-.01m.682,3.31a2.856,2.856,0,0,0,.672-1.976,2.648,2.648,0,0,0-.7-1.887,2.609,2.609,0,0,0-3.666,0,2.648,2.648,0,0,0-.7,1.887,2.836,2.836,0,0,0,.672,1.976,2.332,2.332,0,0,0,1.858.81,2.362,2.362,0,0,0,1.877-.8m-10.02-4.466v5.148h.909V47.894a1.532,1.532,0,0,1,.376-1.077,1.324,1.324,0,0,1,.988-.415q1.255,0,1.255,1.472v3.113h.929v-3.32q0-1.976-1.828-1.976a2.342,2.342,0,0,0-1.769.761v-.642Zm-1.907-1.818q.425-.287.425-.494a.336.336,0,0,0-.089-.208.247.247,0,0,0-.188-.109,1.1,1.1,0,0,0-.613.316L114.3,44.8l.336.336Zm-.563,6.472a1.611,1.611,0,0,1-1.344-.623,2.263,2.263,0,0,1-.445-1.443A2.036,2.036,0,0,1,114.444,47a1.66,1.66,0,0,1,1.314-.553,2.52,2.52,0,0,1,1.057.257l.306-.524a2.223,2.223,0,0,0-1.383-.425,2.816,2.816,0,0,0-1.976.731,2.559,2.559,0,0,0-.781,1.976,2.9,2.9,0,0,0,.464,1.611,2.53,2.53,0,0,0,2.243,1.028,2.638,2.638,0,0,0,1.551-.534l-.257-.514a2.322,2.322,0,0,1-1.255.356m-3.953.563V45.838h-.909V48.8a1.8,1.8,0,0,1-.326,1.087,1.146,1.146,0,0,1-.988.494q-1.255,0-1.255-1.482V45.838h-.929v3.31q0,1.976,1.828,1.976a2.569,2.569,0,0,0,1.66-.721V51Zm-5.791,0V43.417h-.929v3.053h0a1.808,1.808,0,0,0-1.65-.761,2.134,2.134,0,0,0-1.71.791,2.777,2.777,0,0,0-.662,1.848,3.172,3.172,0,0,0,.543,1.917,1.976,1.976,0,0,0,1.729.84,2.055,2.055,0,0,0,1.749-.939h0v.81ZM102.329,49.7a2.9,2.9,0,0,1-.316-1.4,2.411,2.411,0,0,1,.336-1.344,1.314,1.314,0,0,1,1.186-.593,1.344,1.344,0,0,1,1.156.583,2.134,2.134,0,0,1,.376,1.285,2.885,2.885,0,0,1-.346,1.482,1.354,1.354,0,0,1-1.245.721,1.225,1.225,0,0,1-1.136-.741m-2.461,1.294V45.838h-.909V48.8a1.8,1.8,0,0,1-.326,1.087,1.146,1.146,0,0,1-.988.494q-1.255,0-1.255-1.482V45.838h-.929v3.31q0,1.976,1.828,1.976a2.569,2.569,0,0,0,1.66-.721V51Zm-8.3-6.492q1.265,0,1.265.988a1.215,1.215,0,0,1-.514.988,1.739,1.739,0,0,1-1.1.366h-.494V44.465Zm1.917,5.929a1.838,1.838,0,0,0,.791-1.561,1.64,1.64,0,0,0-.563-1.294,1.976,1.976,0,0,0-1.344-.494h0a1.67,1.67,0,0,0,1.057-.642,1.877,1.877,0,0,0,.415-1.2,1.275,1.275,0,0,0-.583-1.136,2.253,2.253,0,0,0-1.285-.336H89.74v7.2h2.026a2.826,2.826,0,0,0,1.729-.524m-1.976-2.876a1.976,1.976,0,0,1,1.166.316,1.206,1.206,0,0,1,.534,1.047,1.156,1.156,0,0,1-.435.988,1.7,1.7,0,0,1-1.077.336h-.988V47.587Z" transform="translate(-16.933 -13.357)" fill="#d51b1b"/>
  <path id="Path_21" data-name="Path 21" d="M167.458,38.635l-1.087.563q-3.686,1.9-5.158,1.9a5.415,5.415,0,0,1-3.953-1.66,5.336,5.336,0,0,1-1.65-3.883,5.929,5.929,0,0,1,2.332-4.941,13.953,13.953,0,0,1,5.356-2.233l4.466-1.038a3.2,3.2,0,0,0-1.324-1.324,3.686,3.686,0,0,0-1.868-.543,7.767,7.767,0,0,0-5.119,1.976l-2.134-3.35a15.5,15.5,0,0,1,8.656-2.53q9.279,0,9.279,7.777v6.729a12.846,12.846,0,0,0,.662,4.536h-8.063a4.812,4.812,0,0,1-.346-1.976m.237-8.627-2.213.82q-2.875,1.077-2.876,3.715a2.214,2.214,0,0,0,.583,1.492,1.828,1.828,0,0,0,1.433.672q1.868,0,2.638-2.678a12.065,12.065,0,0,0,.425-4.022" transform="translate(-17.714 -13.101)" fill="#d51b1b"/>
</svg>
